<svg width="20" height="20" viewBox="0 0 20 20" fill="none" xmlns="http://www.w3.org/2000/svg">
<path d="M0 20V10.9091C0 10.3709 0.0948148 9.79758 0.284444 9.18909C0.474074 8.58061 0.74963 8.12364 1.11111 7.81818V3.63636C1.11111 2.61091 1.32481 1.74849 1.75222 1.04909C2.17963 0.349697 2.70667 0 3.33333 0H8.33333C8.7163 0 9.04333 0.129091 9.31444 0.387272C9.58481 0.644242 9.81333 1 10 1.45455C10.1867 1 10.4152 0.644242 10.6856 0.387272C10.9567 0.129091 11.2837 0 11.6667 0H16.6667C17.2933 0 17.8204 0.349697 18.2478 1.04909C18.6752 1.74849 18.8889 2.61091 18.8889 3.63636V7.81818C19.2511 8.12364 19.5267 8.58061 19.7156 9.18909C19.9052 9.79758 20 10.3709 20 10.9091V20H18.8889V16.3636H1.11111V20H0ZM10.5556 7.27273H17.7778V3.63636C17.7778 3.12121 17.6711 2.6897 17.4578 2.34182C17.2444 1.99394 16.9807 1.81939 16.6667 1.81818H11.6667C11.3519 1.81818 11.0881 1.99273 10.8756 2.34182C10.663 2.69091 10.5563 3.12242 10.5556 3.63636V7.27273ZM2.22222 7.27273H9.44444V3.63636C9.44444 3.12121 9.33778 2.6897 9.12444 2.34182C8.91111 1.99394 8.64741 1.81939 8.33333 1.81818H3.33333C3.01852 1.81818 2.75481 1.99273 2.54222 2.34182C2.32963 2.69091 2.22296 3.12242 2.22222 3.63636V7.27273ZM1.11111 14.5455H18.8889V10.9091C18.8889 10.3939 18.7822 9.96242 18.5689 9.61455C18.3556 9.26667 18.0918 9.09212 17.7778 9.09091H2.22222C1.90741 9.09091 1.6437 9.26545 1.43111 9.61455C1.21852 9.96364 1.11185 10.3952 1.11111 10.9091V14.5455Z" fill="#D6CFC4"/>
</svg>
