<svg width="20" height="20" viewBox="0 0 20 20" fill="none" xmlns="http://www.w3.org/2000/svg">
<g clip-path="url(#clip0_8084_120)">
<path d="M11.2362 4.99553C11.2362 5.15787 11.2042 5.31863 11.1421 5.46862C11.0799 5.61861 10.9889 5.75489 10.8741 5.86969C10.7593 5.98448 10.623 6.07555 10.473 6.13767C10.323 6.1998 10.1623 6.23178 9.99992 6.23178C9.83757 6.23178 9.67682 6.1998 9.52683 6.13767C9.37684 6.07555 9.24056 5.98448 9.12576 5.86969C9.01096 5.75489 8.9199 5.61861 8.85778 5.46862C8.79565 5.31863 8.76367 5.15787 8.76367 4.99553C8.76367 4.66765 8.89392 4.35321 9.12576 4.12137C9.3576 3.88952 9.67205 3.75928 9.99992 3.75928C10.3278 3.75928 10.6422 3.88952 10.8741 4.12137C11.1059 4.35321 11.2362 4.66765 11.2362 4.99553ZM9.91242 7.4799C10.5168 7.4799 11.0062 7.96928 11.0062 8.57365V15.1924C11.0062 15.4825 10.8909 15.7607 10.6858 15.9658C10.4807 16.1709 10.2025 16.2862 9.91242 16.2862C9.62234 16.2862 9.34414 16.1709 9.13902 15.9658C8.93391 15.7607 8.81867 15.4825 8.81867 15.1924V8.57365C8.81867 7.96928 9.30867 7.4799 9.91242 7.4799Z" fill="#D6CFC4"/>
<path d="M3.75 0.625C3.33962 0.625 2.93326 0.705831 2.55411 0.862876C2.17497 1.01992 1.83047 1.25011 1.54029 1.54029C0.95424 2.12634 0.625 2.9212 0.625 3.75V16.25C0.625 17.0788 0.95424 17.8737 1.54029 18.4597C1.83047 18.7499 2.17497 18.9801 2.55411 19.1371C2.93326 19.2942 3.33962 19.375 3.75 19.375H16.25C17.0788 19.375 17.8737 19.0458 18.4597 18.4597C19.0458 17.8737 19.375 17.0788 19.375 16.25V3.75C19.375 3.33962 19.2942 2.93326 19.1371 2.55411C18.9801 2.17497 18.7499 1.83047 18.4597 1.54029C18.1695 1.25011 17.825 1.01992 17.4459 0.862876C17.0667 0.705831 16.6604 0.625 16.25 0.625H3.75ZM1.875 3.75C1.875 3.25272 2.07254 2.77581 2.42417 2.42417C2.77581 2.07254 3.25272 1.875 3.75 1.875H16.25C16.7473 1.875 17.2242 2.07254 17.5758 2.42417C17.9275 2.77581 18.125 3.25272 18.125 3.75V16.25C18.125 16.7473 17.9275 17.2242 17.5758 17.5758C17.2242 17.9275 16.7473 18.125 16.25 18.125H3.75C3.25272 18.125 2.77581 17.9275 2.42417 17.5758C2.07254 17.2242 1.875 16.7473 1.875 16.25V3.75Z" fill="#D6CFC4"/>
</g>
<defs>
<clipPath id="clip0_8084_120">
<rect width="20" height="20" fill="white"/>
</clipPath>
</defs>
</svg>
