<svg width="215" height="60" viewBox="0 0 215 60" fill="none" xmlns="http://www.w3.org/2000/svg">
<g clip-path="url(#clip0_8107_37)">
<path d="M65.3608 37.6366V37.1175L67.2816 36.8852H67.71L69.6584 37.1038V37.623L65.3608 37.6366ZM65.4714 26.0929V25.5874H67.8896V26.3115H67.71L65.4714 26.0929ZM67.0881 37.6366V25.5874H67.71L67.8067 31.5574V37.6366H67.0881ZM72.0075 37.6366L67.3921 26.2158H67.2954V25.5874H69.1747L73.1544 35.6011H72.7537L72.8642 35.3552L76.7195 25.5874H77.4934V26.2158H77.1479L76.9683 26.694L72.6708 37.623L72.0075 37.6366ZM75.1581 37.6366V37.1175L77.5763 36.8852H77.9632L80.4367 37.1038V37.623L75.1581 37.6366ZM76.7334 37.6366C76.7334 36.694 76.7334 35.765 76.7334 34.9044V32.2951V25.5874H78.7647C78.7647 26.4982 78.7647 27.4089 78.7647 28.3197C78.7647 29.2623 78.7647 30.2049 78.7647 31.1475V31.9809C78.7647 32.9098 78.7647 33.8525 78.7647 34.7814C78.7647 35.7104 78.7647 36.653 78.7647 37.582L76.7334 37.6366ZM77.7559 26.3115V25.5874H80.3814V26.0929L77.977 26.3115H77.7559Z" fill="#D6CFC4"/>
<path d="M81.4316 37.6366V37.1175L83.0622 36.8852H83.3662L85.1626 37.0902V37.6093L81.4316 37.6366ZM82.5924 37.6366L86.7379 25.5055H87.9677L92.1132 37.6366H90.0681L86.503 26.7076H86.8346V26.9399L83.4215 37.5956L82.5924 37.6366ZM84.4164 33.6339L84.5131 33.1011H89.6674L89.7641 33.6339H84.4164ZM88.0783 37.6366V37.1175L90.3169 36.8852H90.9939L93.2325 37.1038V37.623L88.0783 37.6366Z" fill="#D6CFC4"/>
<path d="M94.0479 26.0929V25.5874H99.3541V26.0929L96.8944 26.3115H96.4799L94.0479 26.0929ZM94.0479 37.6366V37.1175L96.4799 36.8852H96.8944L99.3541 37.1038V37.623L94.0479 37.6366ZM95.6784 37.6366V34.8361V28.388V25.5874H97.7512C97.7512 26.5027 97.7512 27.4317 97.7512 28.3197V34.7678C97.7512 35.7104 97.7512 36.6393 97.7512 37.582L95.6784 37.6366Z" fill="#D6CFC4"/>
<path d="M104.674 37.9372C103.997 37.9364 103.323 37.8445 102.67 37.6639C102.089 37.5167 101.534 37.2817 101.026 36.9672L101.123 34.3716H101.924L102.643 37.3087L101.731 36.8989L101.579 36.3251C101.996 36.6494 102.463 36.9075 102.96 37.0902C103.444 37.2356 103.948 37.3047 104.453 37.2951C105.186 37.3342 105.912 37.1272 106.512 36.7077C106.767 36.5101 106.97 36.2537 107.103 35.9608C107.235 35.6679 107.293 35.3474 107.272 35.0273C107.28 34.6837 107.209 34.3428 107.065 34.0301C106.911 33.7204 106.677 33.4565 106.387 33.265C105.992 32.9811 105.56 32.7513 105.102 32.582L104.37 32.2814C103.491 31.926 102.693 31.4012 102.021 30.7377C101.466 30.1397 101.173 29.3491 101.206 28.5383C101.182 27.8995 101.372 27.2709 101.744 26.7486C102.118 26.2516 102.633 25.8759 103.223 25.6694C103.886 25.4054 104.595 25.2753 105.31 25.2869C105.899 25.2783 106.487 25.3613 107.051 25.5328C107.54 25.6869 108.005 25.9076 108.433 26.1885L108.419 28.6885H107.603L106.926 25.8743L107.894 26.2842L107.99 26.8989C107.626 26.5956 107.222 26.3428 106.788 26.1475C106.401 26.0009 105.987 25.9358 105.572 25.9563C104.91 25.9272 104.258 26.1198 103.72 26.5027C103.48 26.684 103.289 26.9209 103.164 27.1925C103.039 27.4642 102.983 27.7621 103.002 28.0601C102.989 28.566 103.177 29.0567 103.527 29.4262C103.925 29.8223 104.393 30.1419 104.909 30.3689L105.696 30.7104C106.401 30.9798 107.069 31.333 107.686 31.7623C108.123 32.0654 108.478 32.4686 108.723 32.9372C108.94 33.4081 109.044 33.9225 109.027 34.4399C109.046 35.0847 108.863 35.7196 108.502 36.2568C108.126 36.8005 107.598 37.2233 106.982 37.4727C106.252 37.7785 105.467 37.9365 104.674 37.9372Z" fill="#D6CFC4"/>
<path d="M116.392 37.9372C115.66 37.9388 114.935 37.7944 114.261 37.5127C113.586 37.2311 112.977 36.8179 112.467 36.2978C111.929 35.7247 111.511 35.0513 111.238 34.3169C110.93 33.4388 110.78 32.514 110.795 31.5847C110.777 30.6552 110.927 29.7299 111.238 28.8525C111.511 28.1181 111.929 27.4448 112.467 26.8716C112.974 26.3433 113.585 25.9246 114.264 25.6421C114.938 25.3632 115.661 25.2193 116.392 25.2186C117.126 25.2211 117.852 25.3601 118.534 25.6284C119.209 25.9098 119.816 26.3287 120.316 26.8579C120.886 27.4435 121.324 28.142 121.601 28.9071C122.214 30.6501 122.214 32.5466 121.601 34.2896C121.34 35.0303 120.926 35.7094 120.385 36.2842C119.885 36.8133 119.278 37.2323 118.603 37.5137C117.905 37.8084 117.151 37.9528 116.392 37.9372ZM116.392 37.3497C116.94 37.3597 117.477 37.197 117.926 36.8853C118.382 36.5711 118.756 36.1544 119.017 35.6694C119.322 35.0935 119.541 34.4769 119.667 33.8388C119.809 33.0958 119.879 32.3409 119.874 31.5847C119.878 30.8376 119.809 30.0918 119.667 29.3579C119.538 28.725 119.32 28.1132 119.017 27.541C118.757 27.0519 118.382 26.6306 117.926 26.3115C117.465 26.0373 116.928 25.913 116.392 25.9563C115.847 25.9411 115.311 26.0939 114.858 26.3934C114.405 26.7166 114.032 27.137 113.766 27.623C113.459 28.1945 113.236 28.8062 113.103 29.4399C112.95 30.1723 112.875 30.9188 112.882 31.6667C112.875 32.4237 112.949 33.1793 113.103 33.9208C113.233 34.5596 113.457 35.1763 113.766 35.7514C114.032 36.2335 114.405 36.6494 114.858 36.9672C115.318 37.2468 115.853 37.3803 116.392 37.3497Z" fill="#D6CFC4"/>
<path d="M123.384 37.6366V37.1175L125.125 36.8852H125.54L127.751 37.1038V37.623L123.384 37.6366ZM132.85 37.7186L125.416 26.9945L124.932 26.2568L123.398 26.0929V25.5874H126.77L133.527 35.4098L133.223 35.5191V30.6421V25.5874H133.886V37.7186H132.85ZM124.973 37.6366V25.9563H125.581L125.72 32.9235V37.5956L124.973 37.6366ZM131.095 26.0929V25.5874H135.42V26.0929L133.693 26.3115H133.292L131.095 26.0929Z" fill="#D6CFC4"/>
<path d="M141.072 26.0929V25.5874H143.711V26.3115H143.49L141.072 26.0929ZM141.072 37.6366V37.1175L143.504 36.8989H143.946L146.378 37.1175V37.6366H141.072ZM142.702 37.6366C142.702 36.7077 142.702 35.7787 142.702 34.8361V28.388C142.702 27.4454 142.702 26.5164 142.702 25.5874H144.734C144.734 26.5027 144.734 27.4454 144.734 28.4016V34.8087V37.6366H142.702ZM150.662 37.8279C150.183 37.8479 149.706 37.7443 149.28 37.5273C149.11 37.4033 148.969 37.2457 148.864 37.0646C148.759 36.8835 148.694 36.6829 148.672 36.4754L147.981 33.8798C147.893 33.4963 147.758 33.1248 147.58 32.7732C147.434 32.5108 147.213 32.2968 146.945 32.1585C146.589 32.0188 146.208 31.9537 145.825 31.9672H143.711V31.4208H146.088C146.624 31.4425 147.156 31.3147 147.622 31.0519C148.021 30.8168 148.347 30.4762 148.561 30.0683C148.769 29.6427 148.874 29.1748 148.865 28.7022C148.888 28.3619 148.839 28.0207 148.72 27.7006C148.601 27.3805 148.415 27.0887 148.174 26.8443C147.592 26.355 146.836 26.1143 146.074 26.1749H143.711V25.6011H146.475C147.598 25.5338 148.714 25.8156 149.667 26.4071C150.023 26.6711 150.31 27.0165 150.503 27.4137C150.695 27.811 150.788 28.2483 150.772 28.6885C150.774 29.2001 150.63 29.7018 150.358 30.1366C150.011 30.633 149.533 31.0254 148.976 31.2705C148.237 31.6016 147.438 31.7828 146.627 31.8033V31.6393C147.236 31.6372 147.841 31.7484 148.409 31.9672C148.808 32.1325 149.142 32.4198 149.363 32.7869C149.616 33.209 149.794 33.6711 149.888 34.153L150.758 37.459L149.805 37.0219L152.209 37.1721V37.6913C151.968 37.7512 151.724 37.7968 151.477 37.8279C151.192 37.8503 150.905 37.8503 150.62 37.8279H150.662Z" fill="#B86E79"/>
<path d="M158.635 37.9372C157.899 37.9432 157.17 37.799 156.493 37.5137C155.815 37.2362 155.203 36.8221 154.696 36.2978C154.162 35.7239 153.749 35.0505 153.48 34.3169C153.161 33.4414 153.006 32.5154 153.024 31.5847C153.003 30.6538 153.158 29.7273 153.48 28.8525C153.749 28.1189 154.162 27.4455 154.696 26.8716C155.203 26.3433 155.814 25.9246 156.493 25.6421C157.171 25.3615 157.899 25.2175 158.635 25.2186C159.364 25.2212 160.086 25.3602 160.763 25.6284C161.44 25.9065 162.048 26.3259 162.545 26.8579C163.087 27.4288 163.505 28.1028 163.775 28.8388C164.365 30.5856 164.365 32.4745 163.775 34.2213C163.509 34.9628 163.09 35.6419 162.545 36.2159C162.048 36.7479 161.44 37.1673 160.763 37.4454C160.096 37.7543 159.371 37.9218 158.635 37.9372ZM158.635 37.3497C159.181 37.36 159.717 37.2025 160.168 36.8989C160.621 36.581 160.995 36.1652 161.26 35.6831C161.56 35.1065 161.775 34.4898 161.896 33.8525C162.05 33.1109 162.124 32.3553 162.117 31.5984C162.123 30.8504 162.049 30.104 161.896 29.3716C161.772 28.7393 161.558 28.1276 161.26 27.5546C160.995 27.0687 160.622 26.6483 160.168 26.3251C159.708 26.0495 159.172 25.9208 158.635 25.9563C158.089 25.9374 157.552 26.0905 157.101 26.3934C156.644 26.7126 156.27 27.1339 156.009 27.623C155.69 28.1889 155.465 28.8026 155.346 29.4399C155.188 30.1718 155.109 30.9183 155.111 31.6667C155.108 32.4241 155.187 33.1798 155.346 33.9208C155.463 34.563 155.687 35.1815 156.009 35.7514C156.271 36.2364 156.645 36.6531 157.101 36.9672C157.559 37.2501 158.095 37.3839 158.635 37.3497Z" fill="#B86E79"/>
<path d="M169.676 37.9372C168.999 37.9364 168.324 37.8445 167.672 37.6639C167.091 37.5167 166.536 37.2817 166.028 36.9672L166.125 34.3716H166.926L167.645 37.3087L166.733 36.8989L166.581 36.3251C166.998 36.6494 167.464 36.9075 167.962 37.0902C168.446 37.2356 168.95 37.3047 169.455 37.2951C170.188 37.3342 170.914 37.1272 171.514 36.7077C171.769 36.5101 171.972 36.2537 172.105 35.9608C172.237 35.6679 172.295 35.3474 172.274 35.0273C172.282 34.6837 172.211 34.3428 172.066 34.0301C171.914 33.7241 171.686 33.4611 171.403 33.265C171.001 32.9842 170.565 32.7547 170.104 32.582L169.372 32.2814C168.493 31.926 167.694 31.4012 167.023 30.7377C166.468 30.1397 166.175 29.3491 166.207 28.5383C166.184 27.8995 166.374 27.2709 166.746 26.7486C167.123 26.2551 167.637 25.8802 168.225 25.6694C168.888 25.4054 169.597 25.2753 170.312 25.2869C170.901 25.2783 171.489 25.3613 172.053 25.5328C172.54 25.6902 173.005 25.9107 173.434 26.1885L173.421 28.6885H172.605L171.928 25.8743L172.896 26.2842L172.992 26.8989C172.628 26.5956 172.224 26.3428 171.79 26.1475C171.405 25.9916 170.99 25.9171 170.574 25.929C169.912 25.8999 169.26 26.0924 168.722 26.4754C168.482 26.6567 168.291 26.8936 168.166 27.1652C168.041 27.4368 167.985 27.7348 168.004 28.0328C167.991 28.5387 168.179 29.0294 168.529 29.3989C168.947 29.8021 169.44 30.1221 169.98 30.3415L170.768 30.6831C171.472 30.9524 172.14 31.3057 172.757 31.735C173.194 32.0381 173.549 32.4412 173.794 32.9098C174.011 33.3808 174.115 33.8952 174.098 34.4126C174.117 35.0574 173.934 35.6922 173.573 36.2295C173.197 36.7732 172.669 37.196 172.053 37.4454C171.303 37.7697 170.494 37.9371 169.676 37.9372Z" fill="#B86E79"/>
<path d="M175.604 26.0929V25.5874H178.257V26.3115H178.05L175.604 26.0929ZM175.604 37.6366V37.1175L178.036 36.8989H178.257V37.6366H175.604ZM177.221 37.6366C177.221 36.7077 177.221 35.7787 177.221 34.8361V28.388C177.221 27.4454 177.221 26.5164 177.221 25.5874H179.28C179.28 26.5027 179.28 27.4454 179.28 28.388C179.28 29.3306 179.28 30.3279 179.28 31.3388V31.7486C179.28 32.8279 179.28 33.8388 179.28 34.7951C179.28 35.7514 179.28 36.694 179.28 37.6366H177.221ZM183.923 28.6885L183.246 25.6967L184.227 26.2158H178.257V25.6284H184.683L184.752 28.6885H183.923ZM178.257 31.7896V31.2295H182.306V31.7896H178.257ZM178.257 37.6366V37.0492H184.544L183.55 37.541L184.268 34.4945H185.042V37.6366H178.257ZM182.168 33.4563L181.905 31.6393V31.2978L182.168 29.5082H182.817V33.4563H182.168Z" fill="#B86E79"/>
<path d="M186.548 26.0929V25.5874H191.937V26.0929L189.477 26.3115H188.994L186.548 26.0929ZM186.548 37.6366V37.1175L188.966 36.8989H189.201V37.6366H186.548ZM188.178 37.6366C188.178 36.7077 188.178 35.7924 188.178 34.9044V28.3743C188.178 27.4636 188.178 26.5528 188.178 25.6421H190.237C190.237 26.5574 190.237 27.4863 190.237 28.3743C190.237 29.2623 190.237 30.2732 190.237 31.2432V32.2268C190.237 33.0601 190.237 33.9344 190.237 34.8497C190.237 35.765 190.237 36.694 190.237 37.582L188.178 37.6366ZM189.201 37.6366V37.0492H195.101L194.134 37.5273L194.88 34.2623H195.668V37.6366H189.201Z" fill="#B86E79"/>
<path d="M196.856 26.0929V25.5874H202.163V26.0929L199.703 26.3115H199.288L196.856 26.0929ZM196.856 37.6366V37.1175L199.288 36.8989H199.703L202.163 37.1175V37.6366H196.856ZM198.473 37.6366C198.473 36.7077 198.473 35.7787 198.473 34.8361C198.473 33.8934 198.473 32.9645 198.473 32.0355V31.2022C198.473 30.2596 198.473 29.3169 198.473 28.388C198.473 27.459 198.473 26.5164 198.473 25.5874H200.546V28.3197V34.7678V37.582L198.473 37.6366Z" fill="#B86E79"/>
<path d="M203.13 37.6366V37.1175L204.774 36.9126H205.078L206.861 37.1175V37.6366H203.13ZM204.291 37.6366L208.436 25.5055H209.652L213.798 37.6366H211.78L208.215 26.7076H208.657V26.9399L205.244 37.5956L204.291 37.6366ZM206.115 33.6339L206.211 33.1011H211.421L211.518 33.6339H206.115ZM209.777 37.6366V37.1175L212.015 36.8989H212.706L214.945 37.1175V37.6366H209.777Z" fill="#B86E79"/>
<path d="M29.212 30.0546C29.212 25.8743 32.943 22.2951 38.2354 20.7924C38.7295 18.9098 38.9756 16.9722 38.9678 15.0273C38.9678 6.74863 29.212 0 29.212 0C29.212 0 19.4562 6.72131 19.4562 15.0273C19.4484 16.964 19.6993 18.8933 20.2024 20.765C25.4949 22.2404 29.212 25.8197 29.212 30.0546Z" fill="#E2B5BE"/>
<path d="M29.212 30.0546C25.1494 30.0546 21.6672 26.2295 20.2025 20.7923C18.4045 20.2868 16.5444 20.0293 14.6751 20.0273C6.53609 19.9727 0 30.0546 0 30.0546C0 30.0546 6.53609 40.0273 14.606 40.0273C16.4753 40.0253 18.3354 39.7679 20.1334 39.2623C21.6672 33.8251 25.1494 30.0546 29.212 30.0546Z" fill="#E2B5BE"/>
<path opacity="0.5" d="M29.2122 30.0546C29.2122 25.8743 25.4951 22.2951 20.2026 20.7924C21.6674 26.1749 25.1496 30.0546 29.2122 30.0546Z" fill="#B86E79"/>
<path d="M29.212 30.0546C29.212 34.235 25.4949 37.8142 20.2024 39.3169C19.6993 41.1887 19.4484 43.1179 19.4562 45.0546C19.4562 53.3333 29.212 60.082 29.212 60.082C29.212 60.082 38.9678 53.3607 38.9678 45.0546C38.9732 43.119 38.7271 41.1906 38.2354 39.3169C32.943 37.7596 29.212 34.153 29.212 30.0546Z" fill="#E2B5BE"/>
<path opacity="0.5" d="M29.2122 30.0546C25.1496 30.0546 21.6674 33.8798 20.2026 39.3169C25.4951 37.7596 29.2122 34.153 29.2122 30.0546Z" fill="#B86E79"/>
<path d="M43.8178 19.9727C41.9484 19.9724 40.088 20.2299 38.2905 20.7377C36.8257 26.2022 33.3297 30 29.2671 30C33.3297 30 36.8257 33.8251 38.2905 39.2623C40.088 39.7701 41.9484 40.0276 43.8178 40.0273C51.8878 40.0273 58.4238 30.0546 58.4238 30.0546C58.4238 30.0546 51.8878 19.9727 43.8178 19.9727Z" fill="#E2B5BE"/>
<path opacity="0.5" d="M29.2119 30.0546C33.2745 30.0546 36.7706 26.2295 38.2353 20.7924C32.9429 22.2404 29.2119 25.8197 29.2119 30.0546Z" fill="#B86E79"/>
<path d="M29.2119 30.0546C33.2745 30.0546 36.7706 26.2295 38.2353 20.7924C32.9429 22.2404 29.2119 25.8197 29.2119 30.0546Z" fill="#B86E79"/>
<path opacity="0.5" d="M29.2119 30.0546C29.2119 34.235 32.9429 37.8142 38.2353 39.3169C36.7706 33.8251 33.2745 30.0546 29.2119 30.0546Z" fill="#B86E79"/>
<path d="M29.2119 30.0546C29.2119 34.235 32.9429 37.8142 38.2353 39.3169C36.7706 33.8251 33.2745 30.0546 29.2119 30.0546Z" fill="#B86E79"/>
<path d="M47.2449 30.0546C43.1823 30.0546 39.7001 26.2295 38.2354 20.7924C43.5278 22.2404 47.2449 25.8197 47.2449 30.0546Z" fill="#B86E79"/>
<path d="M47.2449 30.0546C47.2449 34.235 43.5278 37.8142 38.2354 39.3169C39.7001 33.8251 43.1823 30.0546 47.2449 30.0546Z" fill="#B86E79"/>
<path d="M29.212 29.6175H6.02481C5.96308 29.6138 5.90123 29.6222 5.84279 29.6422C5.78436 29.6622 5.73049 29.6933 5.68427 29.734C5.63805 29.7746 5.6004 29.8238 5.57347 29.8788C5.54654 29.9339 5.53087 29.9936 5.52734 30.0546C5.54455 30.1731 5.60732 30.2804 5.70257 30.3542C5.79781 30.428 5.91819 30.4626 6.03862 30.4508H7.89029V34.3852H9.43794V33.0191H11.0547V30.4235H12.6162V32.7869H14.2329V34.2213H15.7806V30.4235H29.212V29.6175Z" fill="#6A1D3A"/>
<path d="M29.2122 30.0546C29.2122 25.8743 25.4951 22.2951 20.2026 20.7924C21.6674 26.1749 25.1496 30.0546 29.2122 30.0546Z" fill="#B86E79"/>
<path d="M29.2122 30.0546C25.1496 30.0546 21.6674 33.8798 20.2026 39.3169C25.4951 37.7596 29.2122 34.153 29.2122 30.0546Z" fill="#B86E79"/>
</g>
<defs>
<clipPath id="clip0_8107_37">
<rect width="215" height="60" fill="white"/>
</clipPath>
</defs>
</svg>
