<svg width="20" height="20" viewBox="0 0 20 20" fill="none" xmlns="http://www.w3.org/2000/svg">
<path fill-rule="evenodd" clip-rule="evenodd" d="M3.63636 0C2.67194 0 1.74702 0.383116 1.06507 1.06507C0.383116 1.74702 0 2.67194 0 3.63636V16.3636C0 17.3281 0.383116 18.253 1.06507 18.9349C1.74702 19.6169 2.67194 20 3.63636 20H16.3636C17.3281 20 18.253 19.6169 18.9349 18.9349C19.6169 18.253 20 17.3281 20 16.3636V3.63636C20 2.67194 19.6169 1.74702 18.9349 1.06507C18.253 0.383116 17.3281 0 16.3636 0H3.63636ZM2.72727 9.00818C2.72727 5.66 6.05182 3.05818 10 3.05818C13.9482 3.05818 17.2727 5.66 17.2727 9.00818C17.2727 12.3564 13.9482 14.9582 10 14.9582C9.69458 14.9584 9.38935 14.9432 9.08545 14.9127L5.87636 16.8927C5.82226 16.9261 5.75969 16.9431 5.69614 16.9419C5.6326 16.9406 5.57076 16.9211 5.51802 16.8856C5.46528 16.8501 5.42388 16.8002 5.39876 16.7418C5.37364 16.6834 5.36586 16.6191 5.37636 16.5564L5.82727 13.8836C3.97364 12.82 2.72727 11.0464 2.72727 9.00818ZM5.04091 7.23091C4.92036 7.23091 4.80474 7.2788 4.7195 7.36404C4.63425 7.44929 4.58636 7.5649 4.58636 7.68546C4.58636 7.80601 4.63425 7.92162 4.7195 8.00687C4.80474 8.09211 4.92036 8.14 5.04091 8.14H5.57818V10.6609C5.57818 10.7815 5.62607 10.8971 5.71132 10.9823C5.79656 11.0676 5.91217 11.1155 6.03273 11.1155C6.15328 11.1155 6.2689 11.0676 6.35414 10.9823C6.43938 10.8971 6.48727 10.7815 6.48727 10.6609V8.14H7.02455C7.1451 8.14 7.26071 8.09211 7.34596 8.00687C7.4312 7.92162 7.47909 7.80601 7.47909 7.68546C7.47909 7.5649 7.4312 7.44929 7.34596 7.36404C7.26071 7.2788 7.1451 7.23091 7.02455 7.23091H5.04091ZM8.93636 7.52182C8.90317 7.43646 8.84496 7.36312 8.76936 7.31141C8.69377 7.2597 8.60432 7.23203 8.51273 7.23203C8.42114 7.23203 8.33169 7.2597 8.25609 7.31141C8.1805 7.36312 8.12229 7.43646 8.08909 7.52182L6.93182 10.4964C6.89072 10.6082 6.89515 10.7316 6.94416 10.8402C6.99317 10.9488 7.08284 11.0338 7.19388 11.0769C7.30492 11.12 7.42845 11.1178 7.53789 11.0708C7.64734 11.0238 7.73395 10.9357 7.77909 10.8255L7.92364 10.4545H9.10182L9.24545 10.8255C9.26629 10.8821 9.29821 10.9341 9.33935 10.9783C9.38049 11.0225 9.43003 11.0581 9.48507 11.0829C9.54011 11.1078 9.59955 11.1214 9.65992 11.123C9.72029 11.1246 9.78037 11.1142 9.83666 11.0923C9.89295 11.0705 9.94433 11.0376 9.98777 10.9957C10.0312 10.9537 10.0659 10.9036 10.0897 10.8481C10.1136 10.7926 10.1261 10.7329 10.1266 10.6725C10.1271 10.6121 10.1156 10.5522 10.0927 10.4964L8.93636 7.52182ZM8.51273 8.94L8.74818 9.54545H8.27727L8.51273 8.94ZM11.1155 7.68546C11.1155 7.5649 11.0676 7.44929 10.9823 7.36404C10.8971 7.2788 10.7815 7.23091 10.6609 7.23091C10.5404 7.23091 10.4247 7.2788 10.3395 7.36404C10.2543 7.44929 10.2064 7.5649 10.2064 7.68546V10.6609C10.2064 10.7815 10.2543 10.8971 10.3395 10.9823C10.4247 11.0676 10.5404 11.1155 10.6609 11.1155H11.9836C12.1042 11.1155 12.2198 11.0676 12.305 10.9823C12.3903 10.8971 12.4382 10.7815 12.4382 10.6609C12.4382 10.5404 12.3903 10.4247 12.305 10.3395C12.2198 10.2543 12.1042 10.2064 11.9836 10.2064H11.1155V7.68546ZM12.9755 7.23091C13.096 7.23091 13.2116 7.2788 13.2969 7.36404C13.3821 7.44929 13.43 7.5649 13.43 7.68546V8.57182L14.6364 7.36455C14.6783 7.32113 14.7285 7.2865 14.7839 7.26268C14.8394 7.23886 14.899 7.22632 14.9594 7.2258C15.0197 7.22527 15.0796 7.23677 15.1354 7.25963C15.1913 7.28248 15.242 7.31623 15.2847 7.35891C15.3274 7.40159 15.3612 7.45234 15.384 7.5082C15.4069 7.56406 15.4184 7.62392 15.4178 7.68427C15.4173 7.74463 15.4048 7.80427 15.381 7.85973C15.3571 7.91519 15.3225 7.96534 15.2791 8.00727L14.2445 9.04182L15.3127 10.3773C15.3837 10.4717 15.4151 10.59 15.4003 10.7072C15.3855 10.8243 15.3257 10.9312 15.2335 11.005C15.1414 11.0789 15.0241 11.1139 14.9065 11.1028C14.789 11.0917 14.6803 11.0353 14.6036 10.9455L13.5973 9.68909L13.4291 9.85727V10.6609C13.4291 10.7815 13.3812 10.8971 13.296 10.9823C13.2107 11.0676 13.0951 11.1155 12.9745 11.1155C12.854 11.1155 12.7384 11.0676 12.6531 10.9823C12.5679 10.8971 12.52 10.7815 12.52 10.6609V7.68546C12.52 7.5649 12.5679 7.44929 12.6531 7.36404C12.7384 7.2788 12.8549 7.23091 12.9755 7.23091Z" fill="white"/>
</svg>
