<svg width="148" height="144" viewBox="0 0 148 144" fill="none" xmlns="http://www.w3.org/2000/svg">
<g clip-path="url(#clip0_8081_391)">
<path d="M0 143.688V143.16L1.89971 142.956H2.26872L4.1821 143.16V143.688H0ZM0.109336 132.234V131.76H2.51473V132.464H2.30972L0.109336 132.234ZM1.70838 143.688V131.732H2.28239L2.37806 137.643V143.688H1.70838ZM6.57383 143.688L2.02272 132.37H1.91338V131.76H3.77209L7.70819 141.696H7.31185L7.43485 141.452L11.2343 131.76H11.9996V132.37H11.658L11.4803 132.844L7.22985 143.688H6.57383ZM9.68991 143.688V143.16L12.0816 142.956H12.4643L14.9107 143.16V143.688H9.68991ZM11.2479 143.688C11.2479 142.753 11.2479 141.831 11.2479 140.977V138.402L11.3163 131.76H13.2297C13.2297 132.663 13.2297 133.567 13.2297 134.471C13.2297 135.406 13.2297 136.328 13.2297 137.263V138.09C13.2297 139.025 13.2297 139.961 13.2297 140.882C13.2297 141.804 13.2297 142.739 13.2297 143.593L11.2479 143.688ZM12.3003 132.464V131.76H14.8834V132.261L12.5053 132.464H12.3003Z" fill="#D6CFC4"/>
<path d="M15.8945 143.689V143.16L17.5209 142.97H17.7669L19.5436 143.16V143.689H15.8945ZM17.0426 143.689L21.1427 131.651H22.359L26.4591 143.689H24.4364L20.9103 132.844H21.2383V133.075L17.7669 143.689H17.0426ZM18.8466 139.717L18.9423 139.175H24.0401L24.1357 139.717H18.8466ZM22.4684 143.689V143.16L24.6824 142.957H25.3521L27.5662 143.16V143.689H22.4684Z" fill="#D6CFC4"/>
<path d="M28.3726 132.261V131.76H33.6207V132.261L31.188 132.465H30.778L28.3726 132.261ZM28.3726 143.716V143.187L30.778 142.984H31.188L33.6207 143.187V143.689L28.3726 143.716ZM29.9853 143.716V141.005V134.525V131.814H32.0353C32.0353 132.718 32.0353 133.621 32.0353 134.525C32.0353 135.46 32.0353 136.382 32.0353 137.318V138.131C32.0353 139.066 32.0353 139.988 32.0353 140.923C32.0353 141.859 32.0353 142.78 32.0353 143.716H29.9853Z" fill="#D6CFC4"/>
<path d="M38.8825 144C38.2102 143.992 37.5427 143.887 36.9008 143.688C36.326 143.542 35.7775 143.309 35.2744 142.997L35.3701 140.435H36.1628L36.8735 143.349L35.9714 142.943L35.8211 142.373C36.2376 142.69 36.6979 142.946 37.1878 143.132C37.667 143.271 38.1649 143.335 38.6638 143.322C39.3874 143.361 40.1035 143.16 40.7002 142.753C40.9513 142.555 41.1507 142.3 41.2816 142.01C41.4124 141.72 41.4708 141.403 41.4519 141.085C41.4596 140.744 41.3895 140.406 41.2469 140.096C41.093 139.79 40.8682 139.526 40.5909 139.323C40.1923 139.05 39.7607 138.826 39.3062 138.659L38.5818 138.347C37.7136 137.999 36.9238 137.483 36.2584 136.829C35.7532 136.231 35.4944 135.466 35.5341 134.687C35.5113 134.053 35.6985 133.43 36.0671 132.911C36.4428 132.422 36.9494 132.046 37.5295 131.827C38.2024 131.581 38.9171 131.465 39.6342 131.488C40.2119 131.483 40.7873 131.561 41.3426 131.719C41.8256 131.879 42.2851 132.103 42.7093 132.383L42.5999 134.836H41.8072L41.1239 132.125L42.0806 132.532L42.1763 133.128C41.8125 132.832 41.4131 132.582 40.9872 132.383C40.6031 132.239 40.1948 132.17 39.7845 132.179C39.1323 132.153 38.4891 132.339 37.9531 132.708C37.7228 132.883 37.5371 133.109 37.4113 133.368C37.2854 133.627 37.2229 133.912 37.2288 134.199C37.2214 134.7 37.4072 135.185 37.7481 135.555C38.1617 135.955 38.6489 136.272 39.1832 136.49L39.9622 136.843C40.6586 137.11 41.3194 137.46 41.9302 137.886C42.368 138.175 42.7215 138.572 42.9553 139.039C43.1734 139.51 43.2809 140.025 43.2696 140.543C43.284 141.184 43.0978 141.814 42.7366 142.346C42.3614 142.882 41.8398 143.3 41.2332 143.553C40.4893 143.862 39.6889 144.014 38.8825 144Z" fill="#D6CFC4"/>
<path d="M50.4858 144C49.7594 144.005 49.0392 143.867 48.3674 143.593C47.6964 143.313 47.0914 142.897 46.5907 142.373C46.0567 141.805 45.6431 141.137 45.3743 140.407C45.0668 139.537 44.9187 138.619 44.937 137.696C44.9163 136.774 45.0645 135.855 45.3743 134.985C45.6463 134.257 46.0596 133.59 46.5907 133.02C47.0876 132.491 47.6936 132.075 48.3674 131.8C49.0447 131.554 49.7656 131.447 50.4858 131.488C51.2075 131.484 51.9228 131.623 52.5905 131.895C53.2581 132.174 53.8589 132.589 54.3535 133.115C54.8846 133.685 55.2979 134.352 55.5699 135.08C56.1534 136.813 56.1534 138.688 55.5699 140.421C55.2945 141.151 54.8817 141.823 54.3535 142.4C53.8586 142.923 53.2589 143.338 52.5929 143.619C51.9268 143.899 51.2091 144.038 50.4858 144.027V144ZM50.4858 143.417C51.0234 143.423 51.5511 143.272 52.0028 142.983C52.4469 142.662 52.8114 142.245 53.0688 141.763C53.3787 141.195 53.5956 140.582 53.7112 139.947C53.8562 139.214 53.9295 138.47 53.9298 137.723C53.9276 136.995 53.8543 136.269 53.7112 135.555C53.5909 134.925 53.3743 134.317 53.0688 133.752C52.8187 133.265 52.4528 132.846 52.0028 132.532C51.556 132.23 51.0259 132.074 50.4858 132.084C49.9451 132.07 49.4139 132.227 48.9687 132.532C48.5102 132.845 48.1351 133.263 47.8754 133.752C47.5717 134.319 47.3508 134.926 47.2193 135.555C47.0735 136.282 47.0003 137.022 47.0007 137.764C47.0011 138.51 47.0743 139.255 47.2193 139.987C47.3456 140.622 47.5667 141.234 47.8754 141.804C48.1426 142.287 48.5163 142.704 48.9687 143.024C49.4225 143.304 49.9516 143.441 50.4858 143.417Z" fill="#D6CFC4"/>
<path d="M57.4014 143.689V143.16L59.1234 142.957H59.5334L61.7338 143.16V143.689H57.4014ZM66.7633 143.77L59.4104 133.129L58.9321 132.397L57.4014 132.261V131.76H60.7361L67.4193 141.506L67.1323 141.615V136.762V131.76H67.7883V143.797L66.7633 143.77ZM58.9731 143.689V132.166H59.5744L59.7111 139.08V143.689H58.9731ZM65.0276 132.234V131.76H69.36V132.261L67.638 132.465H67.2416L65.0276 132.234Z" fill="#D6CFC4"/>
<path d="M74.8813 132.26V131.759H77.5054V132.464H77.3004L74.8813 132.26ZM74.8813 143.715V143.186L77.3004 142.983H77.7241L80.1295 143.186V143.688L74.8813 143.715ZM76.5351 143.688C76.5351 142.766 76.5351 141.831 76.5351 140.977V134.524C76.5351 133.602 76.5351 132.681 76.5351 131.813H78.5441C78.5441 132.721 78.5441 133.657 78.5441 134.606V140.977V143.783L76.5351 143.688ZM84.4072 143.878C83.9309 143.907 83.4563 143.798 83.0405 143.566C82.8712 143.446 82.729 143.293 82.6231 143.115C82.5172 142.938 82.4499 142.74 82.4255 142.536L81.7422 139.96C81.6597 139.578 81.5264 139.209 81.3458 138.862C81.1824 138.59 80.9323 138.381 80.6352 138.266C80.2865 138.115 79.9079 138.046 79.5281 138.062H77.5191V137.534H79.8698C80.4042 137.553 80.9336 137.426 81.4005 137.168C81.7921 136.934 82.1094 136.596 82.3162 136.192C82.5253 135.77 82.6329 135.306 82.6305 134.836C82.66 134.5 82.6193 134.162 82.5112 133.843C82.403 133.523 82.2296 133.229 82.0019 132.979C81.4211 132.502 80.6759 132.269 79.9245 132.328H77.5054V131.759H80.2388C81.3438 131.688 82.4432 131.963 83.3822 132.545C83.7403 132.802 84.0278 133.144 84.2188 133.539C84.4097 133.935 84.498 134.371 84.4756 134.809C84.4798 135.321 84.3376 135.824 84.0656 136.259C83.7222 136.748 83.2491 137.133 82.6989 137.371C81.9683 137.701 81.178 137.881 80.3755 137.9V137.737C80.9788 137.745 81.5758 137.86 82.1385 138.076C82.53 138.243 82.8629 138.521 83.0952 138.876C83.3334 139.299 83.504 139.756 83.6009 140.231L84.4619 143.512L83.5189 143.064L85.897 143.213V143.688L85.1863 143.823C84.9153 143.87 84.6412 143.898 84.3662 143.905L84.4072 143.878Z" fill="#B86E79"/>
<path d="M92.2523 144C91.5262 144.003 90.8065 143.865 90.1339 143.594C89.4653 143.316 88.8642 142.9 88.3709 142.374C87.828 141.812 87.4132 141.142 87.1545 140.408C86.8355 139.54 86.6826 138.621 86.7035 137.697C86.68 136.773 86.833 135.853 87.1545 134.986C87.4162 134.253 87.8307 133.583 88.3709 133.02C88.8604 132.489 89.4626 132.073 90.1339 131.8C90.8115 131.555 91.5322 131.449 92.2523 131.488C92.9741 131.485 93.6894 131.623 94.3571 131.895C95.0284 132.168 95.6306 132.584 96.1201 133.115C96.6559 133.682 97.0698 134.35 97.3365 135.081C97.92 136.814 97.92 138.688 97.3365 140.422C97.0664 141.154 96.653 141.827 96.1201 142.401C95.6233 142.923 95.0231 143.339 94.3571 143.621C93.6875 143.883 92.9723 144.012 92.2523 144ZM92.2523 143.417C92.79 143.424 93.3177 143.273 93.7694 142.984C94.2211 142.667 94.5911 142.249 94.8491 141.764C95.1483 141.192 95.3601 140.58 95.4778 139.947C95.6204 139.215 95.6845 138.47 95.6691 137.724C95.6762 136.982 95.6029 136.241 95.4504 135.514C95.3276 134.887 95.1159 134.28 94.8217 133.712C94.5711 133.221 94.1997 132.802 93.742 132.492C93.2929 132.194 92.765 132.036 92.225 132.036C91.685 132.036 91.1571 132.194 90.708 132.492C90.2503 132.802 89.8789 133.221 89.6283 133.712C89.3246 134.279 89.1037 134.886 88.9723 135.514C88.8472 136.244 88.8014 136.985 88.8356 137.724C88.8291 138.471 88.9024 139.216 89.0543 139.947C89.1805 140.582 89.4016 141.194 89.7103 141.764C89.9683 142.249 90.3382 142.667 90.79 142.984C91.226 143.263 91.7332 143.413 92.2523 143.417Z" fill="#B86E79"/>
<path d="M103.172 144C102.481 143.997 101.795 143.892 101.136 143.688C100.561 143.542 100.012 143.309 99.5093 142.997L99.6049 140.435H100.398L101.108 143.349L100.206 142.943L100.056 142.373C100.472 142.69 100.933 142.946 101.423 143.132C101.902 143.271 102.4 143.335 102.899 143.322C103.622 143.361 104.338 143.16 104.935 142.753C105.186 142.555 105.386 142.3 105.516 142.01C105.647 141.72 105.706 141.403 105.687 141.085C105.694 140.744 105.624 140.406 105.482 140.096C105.328 139.79 105.103 139.526 104.826 139.323C104.427 139.05 103.996 138.826 103.541 138.659L102.817 138.347C101.948 137.999 101.159 137.483 100.493 136.829C99.988 136.231 99.7293 135.466 99.769 134.687C99.7461 134.053 99.9334 133.43 100.302 132.911C100.678 132.422 101.184 132.046 101.764 131.827C102.437 131.581 103.152 131.465 103.869 131.488C104.447 131.483 105.022 131.561 105.577 131.719C106.06 131.879 106.52 132.103 106.944 132.383L106.835 134.836H106.042L105.359 132.125L106.315 132.532L106.411 133.128C106.047 132.832 105.648 132.582 105.222 132.383C104.838 132.239 104.43 132.17 104.019 132.179C103.367 132.153 102.724 132.339 102.188 132.708C101.968 132.888 101.792 133.117 101.676 133.376C101.56 133.634 101.506 133.916 101.518 134.199C101.511 134.7 101.697 135.185 102.038 135.555C102.431 135.948 102.894 136.265 103.404 136.49L104.183 136.843C104.88 137.11 105.541 137.46 106.151 137.886C106.589 138.175 106.943 138.572 107.176 139.039C107.395 139.51 107.502 140.025 107.491 140.543C107.505 141.184 107.319 141.814 106.958 142.346C106.583 142.882 106.061 143.3 105.454 143.553C104.732 143.852 103.955 144.005 103.172 144Z" fill="#B86E79"/>
<path d="M109.035 132.261V131.76H111.659V132.465H111.441L109.035 132.261ZM109.035 143.716V143.187L111.441 142.984H111.659V143.689L109.035 143.716ZM110.703 143.689C110.703 142.767 110.703 141.832 110.703 140.978V134.525C110.703 133.621 110.703 132.718 110.703 131.814H112.739C112.739 132.722 112.739 133.644 112.739 134.525V140.869C112.739 141.831 112.739 142.767 112.739 143.702L110.703 143.689ZM117.331 134.769L116.661 131.787L117.632 132.316H111.659V131.76H118.001V134.796L117.331 134.769ZM111.728 137.873V137.318H115.718V137.873H111.728ZM111.728 143.689V143.106H117.932L116.948 143.58L117.659 140.557H118.424V143.689H111.728ZM115.513 139.622L115.267 137.819V137.467L115.513 135.691H116.169V139.622H115.513Z" fill="#B86E79"/>
<path d="M119.859 132.261V131.76H125.19V132.261L122.743 132.465H122.265L119.859 132.261ZM119.859 143.716V143.187L122.251 142.984H122.483V143.689L119.859 143.716ZM121.458 143.716C121.458 142.794 121.458 141.872 121.458 141.005V134.525C121.458 133.621 121.458 132.718 121.458 131.814H123.495C123.495 132.722 123.495 133.644 123.495 134.525V140.978C123.495 141.886 123.495 142.807 123.495 143.689L121.458 143.716ZM122.483 143.716V143.133H128.333L127.376 143.594L128.114 140.368H128.893V143.716H122.483Z" fill="#B86E79"/>
<path d="M130.055 132.261V131.76H135.303V132.261L132.871 132.465H132.461L130.055 132.261ZM130.055 143.716V143.187L132.461 142.984H132.871L135.303 143.187V143.689L130.055 143.716ZM131.668 143.716V141.005V134.525V131.814H133.718C133.718 132.718 133.718 133.621 133.718 134.525C133.718 135.46 133.718 136.382 133.718 137.318V138.131C133.718 139.066 133.718 139.988 133.718 140.923C133.718 141.859 133.718 142.78 133.718 143.716H131.668Z" fill="#B86E79"/>
<path d="M136.315 143.689V143.16L137.941 142.97H138.242L140.005 143.16V143.689H136.315ZM137.463 143.689L141.563 131.651H142.779L146.88 143.689H144.87L141.344 132.844H141.672V133.075L138.297 143.648L137.463 143.689ZM139.267 139.717L139.376 139.175H144.474L144.57 139.717H139.267ZM142.902 143.689V143.16L145.116 142.957H145.786L148 143.16V143.689H142.902Z" fill="#B86E79"/>
<path d="M70.9044 59.4544C70.9044 51.172 78.7766 44.0825 89.9699 41.1003C91.033 37.4013 91.5711 33.5735 91.5689 29.7272C91.5689 13.3115 70.9044 0 70.9044 0C70.9044 0 50.2672 13.3115 50.2672 29.7272C50.2584 33.5711 50.7827 37.398 51.8252 41.1003C63.0185 44.0825 70.9044 51.172 70.9044 59.4544Z" fill="#E2B5BE"/>
<path d="M70.9042 59.4548C62.294 59.4548 54.9275 51.8773 51.7704 41.1007C47.9181 40.0866 43.9478 39.5807 39.9621 39.596C22.8921 39.596 9.07471 59.4548 9.07471 59.4548C9.07471 59.4548 22.8921 79.3136 39.9621 79.3136C43.9474 79.3223 47.9168 78.8165 51.7704 77.809C54.9275 67.0324 62.294 59.4548 70.9042 59.4548Z" fill="#E2B5BE"/>
<path opacity="0.5" d="M70.9043 59.4547C70.9043 51.1723 63.0185 44.0828 51.7705 41.1006C54.9276 51.8772 62.2941 59.4547 70.9043 59.4547Z" fill="#B86E79"/>
<path d="M70.9044 59.4541C70.9044 67.723 63.0185 74.826 51.7705 77.8082C50.728 81.5105 50.2038 85.3374 50.2125 89.1813C50.2125 105.597 70.8497 118.908 70.8497 118.908C70.8497 118.908 91.5689 105.597 91.5689 89.1813C91.58 85.3363 91.051 81.5085 89.9972 77.8082C78.7765 74.826 70.9044 67.7772 70.9044 59.4541Z" fill="#E2B5BE"/>
<path opacity="0.5" d="M70.9043 59.4541C62.2941 59.4541 54.9276 67.0316 51.7705 77.8082C63.0185 74.826 70.9043 67.7772 70.9043 59.4541Z" fill="#B86E79"/>
<path d="M101.792 39.5961C97.8015 39.5799 93.8266 40.0858 89.9698 41.1007C86.8674 51.9451 79.5008 59.4549 70.9043 59.4549C79.5008 59.4549 86.8674 67.0324 89.9698 77.809C93.8279 78.8174 97.8019 79.3232 101.792 79.3137C118.848 79.3137 132.679 59.4549 132.679 59.4549C132.679 59.4549 118.903 39.5961 101.792 39.5961Z" fill="#E2B5BE"/>
<path opacity="0.5" d="M70.9043 59.4547C79.5008 59.4547 86.8674 51.8772 89.9698 41.1006C78.7765 44.0828 70.9043 51.1723 70.9043 59.4547Z" fill="#B86E79"/>
<path d="M70.9043 59.4547C79.5008 59.4547 86.8674 51.8772 89.9698 41.1006C78.7765 44.0828 70.9043 51.1723 70.9043 59.4547Z" fill="#B86E79"/>
<path opacity="0.5" d="M70.9043 59.4541C70.9043 67.723 78.7765 74.826 89.9698 77.8082C86.8674 67.0316 79.5008 59.4541 70.9043 59.4541Z" fill="#B86E79"/>
<path d="M70.9043 59.4541C70.9043 67.723 78.7765 74.826 89.9698 77.8082C86.8674 67.0316 79.5008 59.4541 70.9043 59.4541Z" fill="#B86E79"/>
<path d="M109.035 59.4547C100.439 59.4547 93.0721 51.8772 89.9014 41.1006C101.136 44.0828 109.035 51.1723 109.035 59.4547Z" fill="#B86E79"/>
<path d="M109.035 59.4541C109.035 67.723 101.163 74.826 89.9014 77.8082C93.0721 67.0316 100.439 59.4541 109.035 59.4541Z" fill="#B86E79"/>
<path d="M70.9045 58.6953H21.8673C21.2933 58.6953 20.8013 59.0478 20.8013 59.4815C20.8013 59.9153 21.2933 60.2813 21.8673 60.2813H25.8307V68.0622H29.0971V65.2562L32.5139 65.1206V60.3084H35.8076V65.0664L39.2244 65.2019V68.0215H42.4908V60.3084H70.9045V58.6953Z" fill="#6A1D3A"/>
<path d="M70.9043 59.4547C70.9043 51.1723 63.0185 44.0828 51.7705 41.1006C54.9276 51.8772 62.2941 59.4547 70.9043 59.4547Z" fill="#B86E79"/>
<path d="M70.9043 59.4541C62.2941 59.4541 54.9276 67.0316 51.7705 77.8082C63.0185 74.826 70.9043 67.7772 70.9043 59.4541Z" fill="#B86E79"/>
</g>
<defs>
<clipPath id="clip0_8081_391">
<rect width="148" height="144" fill="white"/>
</clipPath>
</defs>
</svg>
