<svg width="50" height="50" viewBox="0 0 50 50" fill="none" xmlns="http://www.w3.org/2000/svg">
<path d="M31.4296 24.8826L34.6433 21.669L25.0001 12.0234L15.3569 21.6667L18.5728 24.8803L22.7273 20.728V37.8576H27.2728V20.728L31.4296 24.8826Z" fill="white"/>
<path fill-rule="evenodd" clip-rule="evenodd" d="M42.6773 7.32273C32.9136 -2.44091 17.0864 -2.44091 7.32274 7.32273C-2.44091 17.0863 -2.44091 32.9136 7.32274 42.6773C17.0864 52.4409 32.9136 52.4409 42.6773 42.6773C52.4409 32.9136 52.4409 17.0863 42.6773 7.32273ZM39.4636 10.5364C35.6277 6.70037 30.425 4.54533 25.0001 4.54533C19.5751 4.54533 14.3724 6.70037 10.5364 10.5364C6.70037 14.3723 4.54533 19.5751 4.54533 25C4.54533 30.425 6.70037 35.6276 10.5364 39.4636C14.3724 43.2997 19.5751 45.4547 25.0001 45.4547C30.425 45.4547 35.6277 43.2997 39.4636 39.4636C43.2997 35.6276 45.4547 30.4249 45.4547 25C45.4547 19.5751 43.2997 14.3723 39.4636 10.5364Z" fill="white"/>
</svg>
