<svg width="20" height="20" viewBox="0 0 20 20" fill="none" xmlns="http://www.w3.org/2000/svg">
<path id="Vector" d="M8 14.2857L13.19 10L8 5.71429V14.2857ZM19.56 3.1C19.69 3.77143 19.78 4.67143 19.84 5.81429C19.91 6.95714 19.94 7.94286 19.94 8.8L20 10C20 13.1286 19.84 15.4286 19.56 16.9C19.31 18.1857 18.73 19.0143 17.83 19.3714C17.36 19.5571 16.5 19.6857 15.18 19.7714C13.88 19.8714 12.69 19.9143 11.59 19.9143L10 20C5.81 20 3.2 19.7714 2.17 19.3714C1.27 19.0143 0.69 18.1857 0.44 16.9C0.31 16.2286 0.22 15.3286 0.16 14.1857C0.0900001 13.0429 0.0599999 12.0571 0.0599999 11.2L0 10C0 6.87143 0.16 4.57143 0.44 3.1C0.69 1.81429 1.27 0.985714 2.17 0.628572C2.64 0.442857 3.5 0.314286 4.82 0.228571C6.12 0.128571 7.31 0.0857142 8.41 0.0857142L10 0C14.19 0 16.8 0.228572 17.83 0.628572C18.73 0.985714 19.31 1.81429 19.56 3.1Z" fill="white"/>
</svg>
